<svg width="69" height="25" viewBox="0 0 69 25" fill="none" xmlns="http://www.w3.org/2000/svg">
<path d="M4.5 17C6.98528 17 9 14.9853 9 12.5C9 10.0147 6.98528 8 4.5 8C2.01472 8 0 10.0147 0 12.5C0 14.9853 2.01472 17 4.5 17Z" fill="white"/>
<path d="M64.5 17C66.9853 17 69 14.9853 69 12.5C69 10.0147 66.9853 8 64.5 8C62.0147 8 60 10.0147 60 12.5C60 14.9853 62.0147 17 64.5 17Z" fill="white"/>
<path d="M34.5 0.618673C34.8739 3.46573 36.0951 6.13461 38.0051 8.27876C41.0103 11.284 46.2733 12.0215 46.2733 12.0215C43.8056 12.9152 41.5594 14.3299 39.6873 16.1694C36.6878 19.1689 34.5 24.5726 34.5 24.5726C34.5 24.5726 33.3552 19.7056 30.3507 16.7011C28.6622 14.9634 26.6641 13.5562 24.4591 12.5518C27.0031 11.6146 29.3249 10.1595 31.2777 8.27876C34.2744 5.27073 34.5 0.618673 34.5 0.618673Z" fill="white"/>
</svg>
